<svg width="200" height="68" viewBox="0 0 200 68" fill="none" xmlns="http://www.w3.org/2000/svg">
<path d="M76.592 52H64.24V49.504H69.168C72.2827 42.0373 75.4187 34.656 78.576 27.36C81.7333 20.0213 84.8693 12.6187 87.984 5.152C91.0987 12.6187 94.2133 20.0213 97.328 27.36C100.485 34.656 103.643 42.0373 106.8 49.504H111.728V52H99.44V49.504H104.112C102.917 46.688 101.723 43.8933 100.528 41.12C99.376 38.3467 98.2027 35.552 97.008 32.736H78.96C77.68 35.808 76.5067 38.6027 75.44 41.12C74.3733 43.6373 73.1787 46.432 71.856 49.504H76.592V52ZM87.344 12.832C86.192 15.7333 84.976 18.656 83.696 21.6C82.4587 24.5013 81.2427 27.3813 80.048 30.24H95.92L88.56 12.832L87.984 10.976C87.8987 11.36 87.792 11.68 87.664 11.936C87.5787 12.192 87.472 12.4907 87.344 12.832ZM124.05 52H111.698V49.504H116.626V30.496H111.698V28H119.25V49.504H124.05V52ZM120.082 19.488C120.082 20.0853 119.868 20.5973 119.442 21.024C119.015 21.408 118.524 21.6 117.97 21.6C117.458 21.6 116.988 21.408 116.562 21.024C116.135 20.5973 115.922 20.0853 115.922 19.488C115.922 18.8907 116.135 18.4 116.562 18.016C116.988 17.5893 117.458 17.376 117.97 17.376C118.524 17.376 119.015 17.5893 119.442 18.016C119.868 18.4 120.082 18.8907 120.082 19.488ZM140.03 68H127.678V65.504H133.118C134.185 63.2427 135.273 61.0027 136.382 58.784C137.534 56.5653 138.665 54.3467 139.774 52.128C137.939 48.544 136.126 44.96 134.334 41.376C132.542 37.792 130.75 34.1653 128.958 30.496H124.03V28H135.87V30.496H131.774C133.353 33.7387 134.931 36.9387 136.51 40.096C138.131 43.2533 139.689 46.432 141.182 49.632C142.59 46.5173 144.083 43.36 145.662 40.16C147.283 36.96 148.905 33.7387 150.526 30.496H146.814V28H158.014V30.496H153.342C150.441 36.384 147.539 42.2293 144.638 48.032C141.737 53.792 138.835 59.616 135.934 65.504H140.03V68ZM170.531 30.048C168.91 30.048 167.417 30.3893 166.051 31.072C164.729 31.7547 163.619 32.672 162.723 33.824C161.87 34.9333 161.273 36.192 160.931 37.6C160.59 38.9653 160.569 40.3733 160.867 41.824C163.769 40.672 166.649 39.5413 169.507 38.432C172.409 37.28 175.31 36.128 178.211 34.976C177.443 33.5253 176.377 32.352 175.011 31.456C173.689 30.5173 172.195 30.048 170.531 30.048ZM178.915 49.12C177.806 50.144 176.547 50.9547 175.139 51.552C173.731 52.1493 172.195 52.448 170.531 52.448C168.782 52.448 167.139 52.128 165.603 51.488C164.11 50.848 162.787 49.952 161.635 48.8C160.483 47.648 159.587 46.3253 158.947 44.832C158.307 43.3387 157.987 41.7173 157.987 39.968C157.987 38.2613 158.307 36.64 158.947 35.104C159.587 33.568 160.483 32.2453 161.635 31.136C162.787 30.0267 164.11 29.152 165.603 28.512C167.139 27.8293 168.782 27.488 170.531 27.488C171.854 27.488 173.113 27.7227 174.307 28.192C175.502 28.6187 176.569 29.2587 177.507 30.112C178.403 30.88 179.193 31.8187 179.875 32.928C180.558 33.9947 181.113 35.168 181.539 36.448C178.211 37.7707 174.883 39.072 171.555 40.352C168.27 41.632 164.963 42.9547 161.635 44.32C162.403 45.984 163.577 47.328 165.155 48.352C166.734 49.376 168.526 49.888 170.531 49.888C171.854 49.888 173.091 49.6533 174.243 49.184C175.395 48.7147 176.419 48.0533 177.315 47.2L178.915 49.12ZM194.11 52H181.758V49.504H186.75V30.496H182.142V28H188.862L189.054 31.392C189.096 32.1173 189.118 32.5867 189.118 32.8C189.118 33.0133 189.139 33.4827 189.182 34.208C189.651 33.1413 190.248 32.2027 190.974 31.392C191.742 30.5387 192.595 29.8347 193.534 29.28C194.43 28.7253 195.347 28.2987 196.286 28C197.267 27.7013 198.248 27.5307 199.23 27.488L199.102 30.112C197.822 30.112 196.606 30.3253 195.454 30.752C194.344 31.136 193.363 31.6907 192.51 32.416C191.528 33.1413 190.76 34.08 190.206 35.232C189.651 36.3413 189.374 37.5573 189.374 38.88V49.504H194.11V52Z" fill="black"/>
<rect x="26.2843" y="27.9914" width="11" height="40" rx="5" transform="rotate(45 26.2843 27.9914)" fill="black"/>
<rect x="39.0122" y="1.12134" width="31" height="26" rx="5" transform="rotate(45 39.0122 1.12134)" fill="black"/>
<rect x="31.234" y="-1" width="5" height="18" rx="2.5" transform="rotate(45 31.234 -1)" fill="black"/>
<rect x="59.5183" y="27.2843" width="5" height="18" rx="2.5" transform="rotate(45 59.5183 27.2843)" fill="black"/>
</svg>
